<svg xmlns="http://www.w3.org/2000/svg" width="39.977" height="38.978" viewBox="0 0 39.977 38.978">
  <path id="github-brands" d="M13.371,39.385c0,.161-.185.29-.419.29-.266.024-.451-.1-.451-.29,0-.161.185-.29.419-.29C13.162,39.071,13.371,39.2,13.371,39.385Zm-2.507-.363c-.056.161.1.347.347.395a.378.378,0,0,0,.5-.161c.048-.161-.1-.347-.347-.419a.414.414,0,0,0-.5.185Zm3.562-.137c-.234.056-.395.21-.371.395.024.161.234.266.476.21s.395-.21.371-.371S14.661,38.861,14.427,38.885ZM19.73,8A19.327,19.327,0,0,0,0,27.666,20.207,20.207,0,0,0,13.661,46.945c1.032.185,1.394-.451,1.394-.975,0-.5-.024-3.256-.024-4.949,0,0-5.642,1.209-6.827-2.4,0,0-.919-2.345-2.241-2.95,0,0-1.846-1.265.129-1.241A4.254,4.254,0,0,1,9.2,36.508c1.765,3.111,4.723,2.216,5.876,1.685a4.48,4.48,0,0,1,1.29-2.716c-4.505-.5-9.051-1.153-9.051-8.906a6.108,6.108,0,0,1,1.9-4.747,7.615,7.615,0,0,1,.21-5.473c1.684-.524,5.561,2.176,5.561,2.176a19.041,19.041,0,0,1,10.123,0s3.877-2.708,5.561-2.176a7.611,7.611,0,0,1,.21,5.473,6.265,6.265,0,0,1,2.079,4.747c0,7.778-4.747,8.4-9.253,8.906a4.766,4.766,0,0,1,1.37,3.74c0,2.716-.024,6.077-.024,6.738,0,.524.371,1.161,1.394.975A20.021,20.021,0,0,0,39.977,27.666C39.977,16.487,30.909,8,19.73,8ZM7.834,35.8c-.1.081-.081.266.056.419.129.129.314.185.419.081.1-.081.081-.266-.056-.419C8.124,35.75,7.939,35.693,7.834,35.8Zm-.87-.653c-.056.1.024.234.185.314A.24.24,0,0,0,7.5,35.4c.056-.1-.024-.234-.185-.314C7.149,35.041,7.02,35.065,6.964,35.145Zm2.611,2.869c-.129.1-.081.347.1.5.185.185.419.21.524.081.1-.1.056-.347-.1-.5C9.922,37.91,9.68,37.886,9.575,38.015ZM8.656,36.83c-.129.081-.129.29,0,.476s.347.266.451.185a.368.368,0,0,0,0-.5C8.995,36.806,8.785,36.725,8.656,36.83Z" transform="translate(0 -8)" fill="#121c26"/>
</svg>
