<svg xmlns="http://www.w3.org/2000/svg" width="38.978" height="38.978" viewBox="0 0 38.978 38.978">
  <path id="linkedin-brands" d="M36.194,32H2.775A2.8,2.8,0,0,0,0,34.81V68.168a2.8,2.8,0,0,0,2.775,2.81H36.194a2.8,2.8,0,0,0,2.784-2.81V34.81A2.8,2.8,0,0,0,36.194,32ZM11.78,65.41H6v-18.6h5.786v18.6ZM8.892,44.268a3.35,3.35,0,1,1,3.35-3.35A3.351,3.351,0,0,1,8.892,44.268ZM33.436,65.41H27.659V56.361c0-2.158-.044-4.933-3-4.933-3.01,0-3.471,2.349-3.471,4.777V65.41H15.408v-18.6h5.542v2.541h.078a6.085,6.085,0,0,1,5.473-3c5.847,0,6.934,3.854,6.934,8.866Z" transform="translate(0 -32)" fill="#121c26"/>
</svg>
